<?xml version="1.0" encoding="utf-8"?>
<!-- Generator: Adobe Illustrator 23.0.1, SVG Export Plug-In . SVG Version: 6.00 Build 0)  -->
<svg version="1.1" id="Layer_1" xmlns="http://www.w3.org/2000/svg" xmlns:xlink="http://www.w3.org/1999/xlink" x="0px" y="0px"
	 viewBox="0 0 164.9 194.9" style="enable-background:new 0 0 164.9 194.9;" xml:space="preserve">
<style type="text/css">
	.st0{fill:#FF8E27;}
	.st1{fill:#FFFFFF;}
</style>
<path class="st0" d="M16.3,155.9H24c0.9,0,1.8,0.1,2.7,0.2s1.7,0.4,2.4,0.8c0.7,0.4,1.3,0.9,1.8,1.6s0.7,1.6,0.7,2.7
	c0,1.2-0.3,2.1-1,2.9c-0.6,0.8-1.5,1.3-2.6,1.6v0.1c0.7,0.1,1.3,0.3,1.9,0.6c0.5,0.3,1,0.6,1.4,1.1s0.7,0.9,0.9,1.5
	c0.2,0.6,0.3,1.2,0.3,1.9c0,1.1-0.2,2-0.7,2.7s-1.1,1.3-1.8,1.8c-0.7,0.4-1.6,0.8-2.5,1c-0.9,0.2-1.8,0.3-2.8,0.3h-8.4L16.3,155.9
	L16.3,155.9z M20.8,164.1h3.3c0.4,0,0.7,0,1-0.1s0.6-0.2,0.9-0.4c0.3-0.2,0.5-0.4,0.6-0.7s0.2-0.6,0.2-1.1c0-0.4-0.1-0.8-0.3-1.1
	s-0.4-0.5-0.7-0.7c-0.3-0.1-0.6-0.3-1-0.3c-0.4-0.1-0.7-0.1-1.1-0.1h-3.1L20.8,164.1L20.8,164.1L20.8,164.1z M20.8,172.6h4.1
	c0.4,0,0.7,0,1.1-0.1c0.4-0.1,0.7-0.2,1-0.4c0.3-0.2,0.5-0.4,0.7-0.8c0.2-0.3,0.3-0.7,0.3-1.1c0-0.5-0.1-0.9-0.4-1.2
	c-0.2-0.3-0.5-0.5-0.9-0.7c-0.4-0.2-0.8-0.3-1.2-0.3c-0.4-0.1-0.8-0.1-1.2-0.1h-3.4L20.8,172.6L20.8,172.6z"/>
<path class="st0" d="M34,169.4c0-1.1,0.2-2.1,0.6-3.1s1-1.7,1.7-2.3c0.7-0.6,1.5-1.1,2.5-1.5s2-0.5,3.1-0.5s2.1,0.2,3.1,0.5
	s1.8,0.9,2.5,1.5s1.3,1.4,1.7,2.3c0.4,0.9,0.6,1.9,0.6,3.1c0,1.1-0.2,2.1-0.6,3.1s-1,1.7-1.7,2.3c-0.7,0.6-1.5,1.1-2.5,1.5
	s-2,0.5-3.1,0.5s-2.1-0.2-3.1-0.5s-1.8-0.9-2.5-1.5s-1.3-1.4-1.7-2.3C34.2,171.6,34,170.5,34,169.4z M38.4,169.4
	c0,1.1,0.3,1.9,0.9,2.6c0.6,0.7,1.5,1,2.6,1c1.1,0,2-0.3,2.6-1s0.9-1.5,0.9-2.6c0-1.1-0.3-1.9-0.9-2.6c-0.6-0.7-1.5-1-2.6-1
	c-1.1,0-2,0.3-2.6,1C38.7,167.5,38.4,168.4,38.4,169.4z"/>
<path class="st0" d="M52.3,162.3h4.2v1.9h0.1c0.1-0.3,0.3-0.5,0.6-0.8s0.5-0.5,0.9-0.7s0.8-0.4,1.2-0.5c0.5-0.1,0.9-0.2,1.5-0.2
	c1.1,0,2,0.2,2.7,0.5s1.2,0.8,1.6,1.4c0.4,0.6,0.6,1.3,0.8,2.1s0.2,1.7,0.2,2.6v7.8h-4.4v-6.9c0-0.4,0-0.8,0-1.3
	c0-0.4-0.1-0.8-0.3-1.2c-0.2-0.4-0.4-0.7-0.7-0.9s-0.7-0.4-1.3-0.4c-0.6,0-1,0.1-1.4,0.3c-0.3,0.2-0.6,0.5-0.8,0.8s-0.3,0.7-0.4,1.1
	c-0.1,0.4-0.1,0.9-0.1,1.3v7h-4.4L52.3,162.3L52.3,162.3z"/>
<path class="st0" d="M73.4,177.5c0,0.9-0.1,1.7-0.3,2.5c-0.2,0.7-0.5,1.4-0.9,1.9s-0.9,0.9-1.6,1.2c-0.7,0.3-1.5,0.4-2.5,0.4
	c-0.3,0-0.7,0-1,0s-0.7-0.1-1-0.2l0.2-3.9c0.3,0.2,0.7,0.3,1.1,0.3c0.4,0,0.7-0.1,0.9-0.3s0.4-0.4,0.5-0.7s0.2-0.6,0.2-0.9
	c0-0.3,0-0.6,0-0.9v-14.4h4.4L73.4,177.5L73.4,177.5L73.4,177.5z M68.7,157.9c0-0.7,0.2-1.3,0.7-1.8c0.5-0.5,1.1-0.7,1.8-0.7
	c0.7,0,1.3,0.2,1.8,0.7s0.7,1.1,0.7,1.8s-0.2,1.3-0.7,1.8c-0.5,0.5-1.1,0.7-1.8,0.7c-0.7,0-1.3-0.2-1.8-0.7
	C69,159.2,68.7,158.6,68.7,157.9z"/>
<path class="st0" d="M76.1,169.4c0-1.1,0.2-2.1,0.6-3.1s1-1.7,1.7-2.3c0.7-0.6,1.5-1.1,2.5-1.5s2-0.5,3.1-0.5s2.1,0.2,3.1,0.5
	s1.8,0.9,2.5,1.5s1.3,1.4,1.7,2.3c0.4,0.9,0.6,1.9,0.6,3.1c0,1.1-0.2,2.1-0.6,3.1s-1,1.7-1.7,2.3c-0.7,0.6-1.5,1.1-2.5,1.5
	s-2,0.5-3.1,0.5s-2.1-0.2-3.1-0.5s-1.8-0.9-2.5-1.5s-1.3-1.4-1.7-2.3C76.3,171.6,76.1,170.5,76.1,169.4z M80.4,169.4
	c0,1.1,0.3,1.9,0.9,2.6s1.5,1,2.6,1s2-0.3,2.6-1s0.9-1.5,0.9-2.6c0-1.1-0.3-1.9-0.9-2.6s-1.5-1-2.6-1c-1.1,0-2,0.3-2.6,1
	C80.7,167.5,80.4,168.4,80.4,169.4z"/>
<path class="st0" d="M107.9,176.5h-4.2v-1.9h-0.1c-0.2,0.3-0.4,0.5-0.6,0.8s-0.5,0.5-0.9,0.7c-0.3,0.2-0.8,0.4-1.2,0.5
	c-0.4,0.1-0.9,0.2-1.5,0.2c-1.1,0-2-0.2-2.7-0.5s-1.2-0.8-1.6-1.4s-0.6-1.3-0.8-2.1c-0.1-0.8-0.2-1.7-0.2-2.6v-7.8h4.4v6.9
	c0,0.4,0,0.8,0,1.3c0,0.4,0.1,0.8,0.3,1.2c0.2,0.4,0.4,0.7,0.7,0.9c0.3,0.2,0.7,0.4,1.3,0.4c0.6,0,1-0.1,1.4-0.3
	c0.3-0.2,0.6-0.5,0.8-0.8s0.3-0.7,0.4-1.1c0.1-0.4,0.1-0.9,0.1-1.3v-7h4.4L107.9,176.5L107.9,176.5L107.9,176.5z"/>
<path class="st0" d="M111,162.3h4.4v2.3h0.1c0.5-0.9,1-1.5,1.7-2c0.6-0.4,1.4-0.6,2.4-0.6c0.2,0,0.5,0,0.8,0c0.2,0,0.5,0.1,0.7,0.1
	v4c-0.3-0.1-0.6-0.2-0.9-0.2c-0.3-0.1-0.6-0.1-0.9-0.1c-0.8,0-1.5,0.1-2,0.4c-0.5,0.2-0.9,0.6-1.1,1s-0.4,0.9-0.5,1.5
	s-0.1,1.2-0.1,1.9v5.9H111C111,176.5,111,162.3,111,162.3z"/>
<path class="st1" d="M123.4,155.9h4.5v7.7h8.8v-7.7h4.5v20.6h-4.5v-8.9H128v8.9h-4.5C123.4,176.5,123.4,155.9,123.4,155.9z"/>
<path class="st1" d="M144.7,157.9c0-0.7,0.2-1.3,0.7-1.8c0.5-0.5,1.1-0.7,1.8-0.7s1.3,0.2,1.8,0.7c0.5,0.5,0.7,1.1,0.7,1.8
	s-0.2,1.3-0.7,1.8c-0.5,0.5-1.1,0.7-1.8,0.7s-1.3-0.2-1.8-0.7C144.9,159.2,144.7,158.6,144.7,157.9z M145,162.3h4.4v14.1H145V162.3z
	"/>
<g>
	<g>
		<path class="st1" d="M120.9,145l-37.6-37.6H28.1c-6.5,0-11.9-5.3-11.9-11.9V24.4c0-6.5,5.3-11.9,11.9-11.9h109.7
			c6.5,0,11.9,5.3,11.9,11.9v71.2c0,6.5-5.3,11.9-11.9,11.9h-26.1l14,34.3c0.5,1.3,0.1,2.8-1.1,3.6c-0.5,0.3-1.1,0.5-1.6,0.5
			C122.2,145.8,121.4,145.5,120.9,145z M28.1,18.4c-3.3,0-5.9,2.7-5.9,5.9v71.2c0,3.3,2.7,5.9,5.9,5.9h56.4c0.8,0,1.5,0.3,2.1,0.9
			l28,28l-10.1-24.8c-0.4-0.9-0.3-1.9,0.3-2.8c0.6-0.8,1.5-1.3,2.5-1.3h30.5c3.3,0,5.9-2.7,5.9-5.9V24.4c0-3.3-2.7-5.9-5.9-5.9
			C137.9,18.4,28.1,18.4,28.1,18.4z"/>
	</g>
	<path class="st0" d="M133.7,78.8c0,0,0-0.1,0.1-0.1c0.1-0.1,0.2-0.2,0.2-0.4c0-0.1,0-0.1,0-0.2c0-0.1,0.1-0.2,0.1-0.4
		c0-0.2,0.1-0.4,0.1-0.6c0-0.2,0-0.4-0.1-0.6c0-0.1-0.1-0.3-0.1-0.4c0-0.1,0-0.1,0-0.2c-0.1-0.1-0.1-0.3-0.2-0.4c0,0,0-0.1-0.1-0.1
		c-0.1-0.2-0.2-0.3-0.4-0.4l-14-14c-1.2-1.2-3-1.2-4.2,0c-1.2,1.1-1.2,3,0,4.2l8.9,8.9H34.8c-1.6,0-3,1.3-3,3s1.3,3,3,3H124
		l-8.9,8.9c-1.2,1.2-1.2,3,0,4.2c0.6,0.6,1.3,0.9,2.1,0.9c0.8,0,1.5-0.3,2.1-0.9l14-14C133.4,79.1,133.5,79,133.7,78.8z"/>
	<path class="st1" d="M131.2,39.9H41.9l8.9-8.9c1.2-1.1,1.2-3,0-4.2c-1.2-1.2-3-1.2-4.2,0l-14,14c-0.1,0.1-0.3,0.3-0.4,0.4
		c0,0,0,0.1-0.1,0.1c-0.1,0.1-0.1,0.2-0.2,0.4c0,0,0,0.1-0.1,0.2c0,0.1-0.1,0.2-0.1,0.4c0,0.2-0.1,0.4-0.1,0.6s0,0.4,0.1,0.6
		c0,0.1,0.1,0.3,0.1,0.4c0,0,0,0.1,0.1,0.2c0.1,0.1,0.1,0.3,0.2,0.4c0,0,0,0.1,0.1,0.1c0.1,0.2,0.2,0.3,0.4,0.4l14,14
		c0.6,0.6,1.3,0.9,2.1,0.9s1.5-0.3,2.1-0.9c1.2-1.2,1.2-3,0-4.2l-8.9-8.9h89.2c1.6,0,3-1.3,3-3C134.2,41.2,132.8,39.8,131.2,39.9z"
		/>
</g>
</svg>
