<?xml version="1.0" encoding="utf-8"?>
<!-- Generator: Adobe Illustrator 24.0.0, SVG Export Plug-In . SVG Version: 6.00 Build 0)  -->
<svg version="1.1" id="Layer_1" xmlns="http://www.w3.org/2000/svg" xmlns:xlink="http://www.w3.org/1999/xlink" x="0px" y="0px"
	 viewBox="0 0 164.85 194.9" style="enable-background:new 0 0 164.85 194.9;" xml:space="preserve">
<style type="text/css">
	.st0{fill:#FFFFFF;}
	.st1{fill:#FF8E27;}
</style>
<path class="st0" d="M16.27,155.9h7.68c0.89,0,1.79,0.06,2.69,0.19s1.71,0.38,2.43,0.76c0.72,0.38,1.3,0.91,1.75,1.59
	s0.67,1.58,0.67,2.71c0,1.16-0.32,2.13-0.97,2.9c-0.65,0.76-1.51,1.31-2.58,1.64v0.06c0.68,0.1,1.3,0.29,1.85,0.57
	c0.55,0.28,1.03,0.64,1.43,1.08s0.7,0.94,0.92,1.53c0.21,0.58,0.32,1.2,0.32,1.86c0,1.09-0.23,1.99-0.7,2.72s-1.07,1.31-1.8,1.76
	c-0.74,0.45-1.57,0.76-2.49,0.96c-0.92,0.19-1.84,0.29-2.75,0.29h-8.44V155.9H16.27z M20.81,164.13h3.29c0.35,0,0.69-0.04,1.03-0.12
	s0.65-0.2,0.92-0.38c0.27-0.18,0.49-0.41,0.65-0.7s0.25-0.64,0.25-1.05c0-0.43-0.09-0.78-0.27-1.06s-0.42-0.5-0.71-0.66
	c-0.29-0.15-0.62-0.27-0.99-0.33c-0.37-0.07-0.73-0.1-1.08-0.1h-3.08v4.4H20.81z M20.81,172.65h4.07c0.35,0,0.7-0.04,1.06-0.12
	c0.36-0.08,0.68-0.21,0.98-0.41c0.29-0.19,0.53-0.45,0.71-0.76c0.18-0.31,0.28-0.69,0.28-1.13c0-0.49-0.12-0.88-0.36-1.18
	c-0.24-0.3-0.55-0.53-0.92-0.68c-0.37-0.16-0.76-0.26-1.19-0.32c-0.43-0.06-0.82-0.09-1.19-0.09h-3.43L20.81,172.65L20.81,172.65z"
	/>
<path class="st0" d="M34.05,169.43c0-1.12,0.2-2.14,0.61-3.05s0.97-1.69,1.67-2.34c0.71-0.65,1.54-1.15,2.5-1.5s1.98-0.52,3.07-0.52
	s2.11,0.17,3.07,0.52s1.79,0.85,2.5,1.5s1.27,1.43,1.67,2.34c0.41,0.91,0.61,1.93,0.61,3.05c0,1.12-0.2,2.14-0.61,3.05
	s-0.97,1.69-1.67,2.34c-0.71,0.65-1.54,1.15-2.5,1.5s-1.98,0.52-3.07,0.52s-2.11-0.17-3.07-0.52s-1.79-0.85-2.5-1.5
	s-1.27-1.43-1.67-2.34C34.25,171.57,34.05,170.55,34.05,169.43z M38.41,169.43c0,1.07,0.31,1.93,0.92,2.59
	c0.61,0.66,1.47,0.99,2.58,0.99c1.11,0,1.96-0.33,2.57-0.99s0.92-1.52,0.92-2.59c0-1.07-0.31-1.93-0.92-2.59
	c-0.61-0.66-1.47-0.99-2.57-0.99c-1.11,0-1.97,0.33-2.58,0.99C38.72,167.5,38.41,168.36,38.41,169.43z"/>
<path class="st0" d="M52.32,162.35h4.19v1.92h0.06c0.14-0.27,0.33-0.54,0.58-0.81s0.55-0.51,0.9-0.73s0.75-0.39,1.19-0.52
	c0.45-0.14,0.93-0.2,1.45-0.2c1.11,0,2,0.17,2.68,0.51s1.21,0.81,1.58,1.41c0.38,0.6,0.64,1.31,0.77,2.12s0.2,1.7,0.2,2.65v7.8
	h-4.36v-6.93c0-0.41-0.01-0.83-0.04-1.26c-0.03-0.44-0.12-0.84-0.26-1.21c-0.15-0.37-0.37-0.67-0.67-0.9s-0.73-0.35-1.3-0.35
	c-0.56,0-1.02,0.1-1.37,0.31c-0.35,0.2-0.62,0.47-0.8,0.81s-0.31,0.72-0.36,1.15c-0.06,0.43-0.09,0.87-0.09,1.34v7.04h-4.36
	L52.32,162.35L52.32,162.35z"/>
<path class="st0" d="M73.44,177.54c0,0.91-0.09,1.73-0.26,2.46c-0.17,0.73-0.46,1.35-0.87,1.86s-0.95,0.91-1.61,1.19
	c-0.67,0.28-1.5,0.42-2.49,0.42c-0.33,0-0.67-0.01-1.02-0.04s-0.69-0.09-1.02-0.19l0.23-3.87c0.35,0.17,0.73,0.26,1.14,0.26
	c0.37,0,0.66-0.1,0.87-0.29s0.37-0.44,0.47-0.73s0.15-0.6,0.18-0.93c0.02-0.33,0.03-0.63,0.03-0.9v-14.43h4.36v15.19H73.44z
	 M68.73,157.9c0-0.7,0.25-1.3,0.74-1.79c0.49-0.49,1.09-0.74,1.79-0.74c0.7,0,1.3,0.25,1.79,0.74s0.74,1.09,0.74,1.79
	s-0.25,1.3-0.74,1.79c-0.49,0.49-1.09,0.74-1.79,0.74c-0.7,0-1.29-0.25-1.79-0.74C68.98,159.2,68.73,158.6,68.73,157.9z"/>
<path class="st0" d="M76.06,169.43c0-1.12,0.2-2.14,0.61-3.05s0.97-1.69,1.67-2.34c0.71-0.65,1.54-1.15,2.5-1.5s1.98-0.52,3.07-0.52
	s2.11,0.17,3.07,0.52s1.79,0.85,2.5,1.5s1.27,1.43,1.67,2.34c0.41,0.91,0.61,1.93,0.61,3.05c0,1.12-0.2,2.14-0.61,3.05
	s-0.97,1.69-1.67,2.34c-0.71,0.65-1.54,1.15-2.5,1.5s-1.98,0.52-3.07,0.52s-2.11-0.17-3.07-0.52s-1.79-0.85-2.5-1.5
	s-1.27-1.43-1.67-2.34C76.26,171.57,76.06,170.55,76.06,169.43z M80.42,169.43c0,1.07,0.31,1.93,0.92,2.59s1.47,0.99,2.58,0.99
	s1.96-0.33,2.57-0.99s0.92-1.52,0.92-2.59c0-1.07-0.31-1.93-0.92-2.59s-1.47-0.99-2.57-0.99c-1.11,0-1.97,0.33-2.58,0.99
	C80.73,167.5,80.42,168.36,80.42,169.43z"/>
<path class="st0" d="M107.95,176.5h-4.19v-1.92h-0.06c-0.16,0.27-0.36,0.54-0.6,0.81s-0.54,0.51-0.89,0.73
	c-0.35,0.21-0.75,0.39-1.19,0.52c-0.45,0.14-0.93,0.2-1.46,0.2c-1.11,0-2-0.17-2.69-0.51s-1.22-0.81-1.6-1.41s-0.63-1.31-0.76-2.12
	c-0.13-0.81-0.19-1.7-0.19-2.65v-7.8h4.36v6.93c0,0.41,0.02,0.83,0.04,1.26c0.03,0.44,0.12,0.84,0.26,1.21
	c0.15,0.37,0.37,0.67,0.67,0.9c0.3,0.23,0.73,0.35,1.3,0.35c0.56,0,1.02-0.1,1.37-0.31c0.35-0.2,0.62-0.47,0.8-0.81
	s0.31-0.72,0.36-1.15c0.06-0.43,0.09-0.87,0.09-1.34v-7.04h4.36v14.15H107.95z"/>
<path class="st0" d="M111.03,162.35h4.36v2.27h0.06c0.47-0.87,1.02-1.53,1.66-1.96c0.64-0.44,1.45-0.65,2.42-0.65
	c0.25,0,0.5,0.01,0.76,0.03c0.25,0.02,0.49,0.06,0.7,0.12v3.99c-0.31-0.09-0.62-0.17-0.92-0.22c-0.3-0.05-0.62-0.07-0.95-0.07
	c-0.83,0-1.49,0.12-1.98,0.35c-0.49,0.23-0.86,0.56-1.12,0.98s-0.43,0.92-0.51,1.5s-0.12,1.22-0.12,1.92v5.91h-4.36
	C111.03,176.52,111.03,162.35,111.03,162.35z"/>
<path class="st1" d="M123.43,155.9h4.54v7.68h8.82v-7.68h4.54v20.6h-4.54v-8.9h-8.82v8.9h-4.54
	C123.43,176.5,123.43,155.9,123.43,155.9z"/>
<path class="st1" d="M144.67,157.9c0-0.7,0.25-1.3,0.74-1.79c0.49-0.49,1.09-0.74,1.79-0.74s1.3,0.25,1.79,0.74
	c0.49,0.49,0.74,1.09,0.74,1.79s-0.25,1.3-0.74,1.79c-0.49,0.49-1.09,0.74-1.79,0.74s-1.29-0.25-1.79-0.74
	C144.92,159.2,144.67,158.6,144.67,157.9z M145.02,162.35h4.36v14.14h-4.36V162.35z"/>
<g>
	<g>
		<path class="st0" d="M43.02,145.84c-0.57,0-1.14-0.16-1.64-0.5c-1.18-0.78-1.64-2.28-1.11-3.59l13.98-34.33H28.13
			c-6.54,0-11.86-5.32-11.86-11.86V24.38c0-6.54,5.32-11.86,11.86-11.86h109.73c6.54,0,11.86,5.32,11.86,11.86v71.18
			c0,6.54-5.32,11.86-11.86,11.86h-55.2l-37.55,37.55C44.54,145.55,43.79,145.84,43.02,145.84z M28.13,18.45
			c-3.27,0-5.93,2.66-5.93,5.93v71.18c0,3.27,2.66,5.93,5.93,5.93h30.52c0.99,0,1.91,0.49,2.46,1.31s0.66,1.86,0.28,2.77L51.3,130.4
			l28.04-28.04c0.55-0.56,1.31-0.87,2.1-0.87h56.43c3.27,0,5.93-2.66,5.93-5.93V24.38c0-3.27-2.66-5.93-5.93-5.93
			C137.87,18.45,28.13,18.45,28.13,18.45z"/>
	</g>
	<path class="st1" d="M32.71,47.24l13.98,13.97c0.58,0.58,1.34,0.87,2.1,0.87s1.52-0.29,2.1-0.87c1.16-1.16,1.16-3.04,0-4.19
		l-8.91-8.91h89.23c1.64,0,2.97-1.33,2.97-2.97s-1.33-2.97-2.97-2.97H41.97l8.91-8.91c1.16-1.16,1.16-3.04,0-4.19
		c-1.16-1.16-3.04-1.16-4.19,0L32.71,43.05c-0.14,0.14-0.26,0.29-0.37,0.45c-0.03,0.04-0.04,0.08-0.07,0.12
		c-0.08,0.12-0.15,0.25-0.21,0.38c-0.02,0.06-0.03,0.12-0.05,0.18c-0.04,0.12-0.09,0.25-0.11,0.38c-0.04,0.19-0.06,0.39-0.06,0.59
		s0.02,0.4,0.06,0.59c0.02,0.13,0.07,0.25,0.11,0.38c0.02,0.06,0.03,0.12,0.05,0.18c0.05,0.13,0.13,0.26,0.21,0.38
		c0.02,0.04,0.04,0.08,0.07,0.12C32.45,46.96,32.57,47.11,32.71,47.24z"/>
	<path class="st0" d="M31.84,74.8c0,1.64,1.33,2.97,2.97,2.97h89.23l-8.91,8.91c-1.16,1.16-1.16,3.04,0,4.19
		c0.58,0.58,1.34,0.87,2.1,0.87s1.52-0.29,2.1-0.87L133.3,76.9c0.14-0.14,0.26-0.29,0.37-0.45c0.03-0.04,0.04-0.08,0.07-0.12
		c0.07-0.12,0.15-0.25,0.2-0.38c0.02-0.06,0.03-0.12,0.05-0.17c0.04-0.12,0.09-0.25,0.11-0.38c0.04-0.19,0.06-0.39,0.06-0.59
		s-0.02-0.39-0.06-0.59c-0.03-0.13-0.07-0.25-0.11-0.38c-0.02-0.06-0.03-0.12-0.05-0.17c-0.06-0.13-0.13-0.26-0.2-0.38
		c-0.03-0.04-0.04-0.08-0.07-0.12c-0.11-0.16-0.23-0.31-0.37-0.45l-13.97-13.97c-1.16-1.16-3.04-1.16-4.19,0
		c-1.16,1.16-1.16,3.04,0,4.19l8.91,8.91H34.81C33.17,71.84,31.84,73.17,31.84,74.8z"/>
</g>
</svg>
